<?xml version="1.0" standalone="no"?>
<!DOCTYPE svg PUBLIC "-//W3C//DTD SVG 20010904//EN"
 "http://www.w3.org/TR/2001/REC-SVG-20010904/DTD/svg10.dtd">
<svg version="1.0" xmlns="http://www.w3.org/2000/svg"
 width="775.000000pt" height="775.000000pt" viewBox="0 0 775.000000 775.000000"
 preserveAspectRatio="xMidYMid meet">
<metadata>
Created by potrace 1.11, written by Peter Selinger 2001-2013
</metadata>
<g transform="translate(0.000000,775.000000) scale(0.100000,-0.100000)"
fill="#000000" stroke="none">
<path d="M3460 7656 c-860 -111 -1604 -460 -2199 -1031 -674 -647 -1076 -1486
-1162 -2425 -15 -165 -6 -636 15 -790 117 -849 470 -1583 1046 -2174 602 -618
1356 -997 2230 -1122 148 -21 644 -30 830 -15 362 28 833 148 1180 299 1150
502 1990 1558 2214 2784 43 232 59 420 59 698 0 461 -51 786 -193 1210 -217
654 -629 1258 -1158 1698 -556 462 -1147 729 -1882 848 -140 23 -189 26 -515
29 -265 3 -388 1 -465 -9z m874 -221 c1017 -140 1881 -657 2466 -1475 370
-517 606 -1161 651 -1774 16 -216 6 -644 -20 -813 -269 -1779 -1763 -3074
-3545 -3073 -741 1 -1406 205 -2026 624 -368 249 -711 597 -973 989 -416 623
-624 1406 -579 2174 29 490 144 929 357 1368 176 362 392 663 690 960 398 399
867 687 1405 865 247 82 486 133 820 174 80 10 649 -4 754 -19z"/>
<path d="M2317 6386 c-212 -75 -347 -262 -347 -481 0 -196 111 -370 294 -460
l73 -37 1274 -7 1274 -7 87 -31 c294 -105 511 -296 643 -568 88 -181 100 -235
100 -465 0 -175 -3 -203 -23 -275 -34 -117 -120 -288 -191 -382 -136 -180
-312 -303 -550 -384 l-85 -29 -335 -1 c-185 0 -419 -4 -521 -8 l-185 -7 -71
-38 c-371 -195 -371 -708 0 -891 71 -36 88 -40 190 -46 61 -4 314 -8 563 -8
l452 -1 113 29 c389 101 691 266 970 531 353 333 581 799 639 1300 14 126 7
402 -15 542 -91 580 -421 1094 -917 1426 -206 137 -459 244 -732 306 -60 14
-221 16 -1350 16 l-1282 0 -68 -24z m2748 -235 c427 -112 795 -368 1060 -736
84 -116 201 -350 248 -493 176 -541 98 -1140 -210 -1607 -261 -396 -645 -674
-1097 -795 l-111 -30 -533 0 c-590 0 -555 -4 -633 67 -54 49 -81 104 -87 179
-9 116 51 223 152 270 50 23 57 24 366 25 173 0 405 4 515 8 196 7 202 8 310
45 211 71 375 177 534 342 186 192 289 385 342 637 29 133 31 379 6 509 -34
173 -100 332 -198 483 -66 101 -250 286 -353 355 -103 69 -258 142 -371 176
-131 38 -278 43 -1536 43 l-1085 1 -45 28 c-53 34 -106 93 -127 141 -21 50
-21 156 1 211 20 53 84 121 142 149 39 20 62 20 1320 21 l1280 0 110 -29z"/>
<path d="M3140 4830 c-124 -6 -173 -13 -245 -34 -108 -32 -253 -100 -349 -163
-93 -62 -255 -219 -328 -317 -112 -150 -202 -369 -227 -550 -13 -91 -14 -814
-2 -1697 l8 -606 34 -64 c104 -195 307 -303 507 -269 157 26 291 124 366 268
l38 74 5 1071 6 1072 28 56 c31 63 92 122 153 150 39 18 78 19 741 19 385 1
760 5 834 9 124 9 138 12 206 45 52 26 90 54 133 101 253 270 156 681 -193
815 l-60 23 -750 2 c-412 2 -820 -1 -905 -5z m1657 -235 c81 -24 153 -117 168
-217 17 -110 -35 -215 -135 -275 l-54 -33 -731 0 c-862 -1 -908 -3 -1012 -55
-149 -74 -266 -218 -294 -365 -7 -36 -12 -410 -15 -1065 -2 -555 -7 -1029 -10
-1052 -6 -52 -78 -137 -139 -164 -92 -42 -236 -13 -298 61 -63 74 -60 42 -69
680 -5 322 -7 824 -5 1115 3 507 5 533 25 606 57 199 150 357 294 495 108 104
219 176 352 229 138 54 126 53 1032 54 721 1 848 -1 891 -14z"/>
</g>
</svg>
